<svg id="Layer_1" data-name="Layer 1" xmlns="http://www.w3.org/2000/svg" viewBox="0 0 28 28"><defs><style>.cls-1{fill:#96003c;}.cls-2{fill:#ed174c;}.cls-3{fill:#4a4b4e;}.cls-4{fill:#c40d40;}</style></defs><path class="cls-1" d="M14,0A14,14,0,1,0,28,14,14,14,0,0,0,14,0Zm0,27.23A13.25,13.25,0,1,1,27.25,14,13.25,13.25,0,0,1,14,27.23Z"/><path class="cls-2" d="M14,11.66A2.32,2.32,0,1,0,16.34,14,2.34,2.34,0,0,0,14,11.66Z"/><path class="cls-3" d="M4.15,16.22l-1.7,1A11.83,11.83,0,0,0,3.61,20a11.6,11.6,0,0,0,1.84,2.4l2.7-1.56A8.92,8.92,0,0,0,11,22.48a11.34,11.34,0,0,0,2.19-3.12A13.31,13.31,0,0,1,4.15,16.22Z"/><path class="cls-4" d="M11,23.64v2a12.17,12.17,0,0,0,3,.4,11.71,11.71,0,0,0,3-.39V22.48a8.76,8.76,0,0,0,2.83-1.62,11,11,0,0,0-1.61-3.46A13.23,13.23,0,0,1,11,23.64Z"/><path class="cls-3" d="M22.85,15.64a8.93,8.93,0,0,0,0-3.26A11,11,0,0,0,19.06,12a13.28,13.28,0,0,1,1.78,9.38l1.71,1A12,12,0,0,0,24.39,20a11.42,11.42,0,0,0,1.16-2.8Z"/><path class="cls-4" d="M24.39,8a12,12,0,0,0-1.84-2.4L19.84,7.16A8.88,8.88,0,0,0,17,5.52a11.34,11.34,0,0,0-2.19,3.12,13.33,13.33,0,0,1,9,3.14l1.7-1A12.26,12.26,0,0,0,24.39,8Z"/><path class="cls-3" d="M11,2.39V5.51A9,9,0,0,0,8.17,7.14,10.83,10.83,0,0,0,9.78,10.6,13.23,13.23,0,0,1,17,4.36v-2A12.17,12.17,0,0,0,14,2,11.71,11.71,0,0,0,11,2.39Z"/><path class="cls-4" d="M7.16,6.58l-1.71-1A12.24,12.24,0,0,0,3.61,8a11.86,11.86,0,0,0-1.17,2.8l2.71,1.56a9.16,9.16,0,0,0,0,3.26,11,11,0,0,0,3.8.34A13.23,13.23,0,0,1,7.16,6.58Z"/></svg>